<?xml version="1.0" standalone="no"?>
<!DOCTYPE svg PUBLIC "-//W3C//DTD SVG 20010904//EN"
 "http://www.w3.org/TR/2001/REC-SVG-20010904/DTD/svg10.dtd">
<svg version="1.0" xmlns="http://www.w3.org/2000/svg"
 width="1024.000000pt" height="1024.000000pt" viewBox="0 0 1024.000000 1024.000000"
 preserveAspectRatio="xMidYMid meet">

<g transform="translate(0.000000,1024.000000) scale(0.100000,-0.100000)"
fill="#000000" stroke="none">
<path d="M5400 9225 c-8 -2 -55 -9 -105 -15 -208 -29 -481 -125 -670 -238 -80
-47 -237 -163 -305 -225 -136 -122 -296 -325 -375 -474 -11 -20 -16 -16 -126
82 -63 57 -117 104 -121 105 -19 1 -1 -368 22 -478 6 -28 25 -71 42 -96 l30
-46 -25 -44 c-65 -117 -90 -251 -86 -471 l3 -160 -73 -158 c-152 -324 -390
-705 -681 -1087 -289 -380 -561 -799 -687 -1060 -82 -170 -173 -403 -203 -518
l-11 -43 -654 3 c-360 2 -654 1 -653 -2 20 -40 146 -281 234 -448 l113 -212
-15 -76 c-79 -416 171 -785 610 -899 54 -14 118 -25 143 -25 39 0 44 -2 38
-17 -29 -77 -343 -1006 -370 -1095 l-14 -48 3733 0 3733 0 52 163 c30 89 75
225 102 302 l49 140 83 29 c386 136 619 387 762 822 65 197 145 492 150 550 5
53 14 76 60 155 l55 93 0 174 c0 113 -3 171 -10 167 -5 -3 -10 -10 -10 -14 0
-12 -171 -321 -200 -361 -44 -62 -32 -10 21 88 108 201 159 297 159 305 0 4
-323 7 -717 7 -656 0 -723 1 -776 17 -56 17 -34 18 737 15 l796 -3 0 84 0 84
-227 8 c-126 4 -394 5 -597 3 l-369 -3 -28 112 c-61 250 -158 480 -307 729
-108 181 -347 497 -566 747 -338 387 -504 602 -611 791 -45 80 -53 101 -45
121 23 60 52 252 57 380 10 238 -35 494 -137 790 -234 674 -868 1171 -1589
1244 -92 10 -382 13 -421 6z m365 -105 c257 -25 467 -96 564 -192 42 -41 78
-104 67 -116 -8 -7 -46 28 -46 43 0 6 -22 24 -50 39 -27 15 -50 31 -50 37 0
11 -31 12 -56 2 -16 -6 -16 -7 2 -15 15 -7 13 -7 -6 -3 -14 3 -52 8 -85 10
-33 2 -87 7 -121 10 -47 5 -290 -18 -301 -28 -1 -1 67 -2 150 -3 169 0 225
-10 341 -56 55 -22 81 -28 84 -20 5 15 81 -28 135 -75 26 -23 33 -35 24 -39
-7 -2 -90 -6 -183 -7 -160 -3 -174 -5 -259 -34 -139 -48 -390 -172 -499 -247
-54 -37 -105 -70 -114 -73 -23 -8 -155 -105 -165 -120 -5 -8 -12 -11 -16 -8
-5 2 -15 -3 -22 -13 -13 -16 -13 -16 6 -2 19 14 19 14 6 -2 -7 -10 -17 -15
-22 -12 -5 3 -36 -21 -69 -52 -91 -87 -104 -94 -187 -94 -57 0 -73 3 -73 14 0
8 4 17 10 21 5 3 19 20 31 38 24 33 17 28 -112 -88 -82 -73 -229 -243 -229
-263 0 -5 9 -17 19 -26 10 -9 33 -46 50 -81 18 -36 36 -67 41 -70 6 -3 15 -16
21 -28 9 -16 4 -14 -20 9 -17 17 -43 34 -58 37 -34 7 -140 101 -125 111 6 4 9
13 6 21 -3 8 17 47 44 87 94 137 182 282 179 292 -4 12 -30 11 -86 0 l-34 -7
31 44 c72 99 214 259 294 330 177 156 330 251 528 330 52 21 90 38 83 38 -18
1 -243 -79 -278 -99 -162 -92 -259 -160 -384 -269 -67 -59 -269 -280 -335
-369 -32 -41 -47 -53 -75 -57 -44 -6 -139 -29 -166 -40 -18 -7 -18 -6 2 12 22
20 53 90 53 120 0 8 16 48 35 90 63 136 31 87 -52 -80 -78 -156 -123 -217
-123 -165 0 12 -5 50 -11 85 l-11 65 -29 -28 c-16 -15 -31 -36 -35 -46 -9 -29
-19 -21 -49 37 l-27 55 43 72 c135 228 339 448 539 581 356 236 758 337 1175
297z m696 -208 c207 -107 311 -184 471 -351 227 -236 354 -469 442 -815 64
-247 80 -368 80 -591 -1 -184 -3 -208 -27 -300 -33 -121 -69 -237 -73 -232 -2
1 4 41 12 87 16 92 19 366 5 435 l-9 40 -1 -45 c-3 -105 -92 -401 -167 -554
-57 -115 -146 -249 -202 -302 -42 -41 -159 -111 -168 -101 -3 2 18 23 46 47
46 38 198 220 184 220 -3 0 -47 -39 -98 -86 -51 -47 -111 -97 -132 -111 -97
-65 -108 -72 -112 -68 -3 3 7 16 21 31 15 14 38 47 53 72 14 26 43 73 63 104
l36 58 58 0 c42 0 62 5 76 19 10 10 26 23 36 28 13 7 -4 11 -63 15 -44 4 -88
11 -99 17 -15 9 -15 10 -2 11 9 0 23 8 31 18 16 17 73 204 85 274 4 30 10 38
27 39 18 1 19 2 2 6 -17 5 -18 12 -11 86 10 106 13 879 3 1005 -7 106 -18 156
-54 249 -13 34 -25 73 -26 87 -1 14 -6 26 -11 26 -5 0 -5 9 -2 20 3 11 2 20
-3 20 -6 0 -13 7 -16 16 -4 10 -2 13 7 9 6 -4 2 2 -10 13 -12 11 -20 22 -17
24 2 3 -2 11 -11 18 -8 7 -15 19 -15 26 0 8 -4 14 -9 14 -10 0 -83 92 -77 97
6 6 56 -46 56 -58 0 -6 5 -7 10 -4 6 4 9 1 8 -5 -2 -7 8 -14 21 -16 22 -4 21
-1 -14 38 -106 120 -259 232 -301 222 -12 -3 -25 -1 -28 5 -4 6 -23 11 -42 11
-39 0 -39 1 -20 39 20 38 4 59 -77 107 -70 41 -74 44 -60 44 6 0 62 -26 124
-58z m65 -174 c2 -3 -16 -5 -41 -5 -24 0 -42 4 -39 8 4 7 72 5 80 -3z m24 -44
c93 -27 150 -77 252 -219 71 -99 137 -259 170 -410 17 -82 17 -408 0 -505 -32
-174 -89 -344 -160 -475 -31 -56 -44 -71 -68 -76 -16 -4 -21 -7 -11 -8 9 0 17
-5 17 -11 0 -5 -33 -49 -73 -97 -123 -148 -294 -293 -447 -381 -111 -63 -280
-113 -280 -82 0 6 4 10 8 10 5 0 21 25 36 55 25 49 29 71 38 212 6 102 7 197
0 268 l-9 110 -3 -150 -3 -150 -12 85 c-23 163 -25 210 -7 210 13 0 13 2 -3
14 -17 12 -18 26 -12 222 3 125 12 243 22 294 18 94 80 334 95 365 17 36 120
318 117 321 -6 6 -147 -340 -147 -361 0 -31 -80 -191 -144 -288 -64 -96 -263
-299 -380 -386 -43 -32 -105 -69 -137 -82 -32 -13 -57 -24 -56 -25 1 -2 36 2
77 7 77 10 216 -6 430 -49 l85 -17 7 -115 c5 -63 14 -170 22 -238 13 -116 12
-135 -9 -229 -3 -12 -28 -48 -55 -79 -28 -32 -49 -58 -48 -59 8 -5 201 15 238
25 25 6 88 31 140 54 59 27 117 46 154 50 l59 6 -27 -35 c-15 -19 -25 -39 -21
-44 3 -5 1 -12 -5 -16 -5 -3 -10 -11 -10 -17 0 -6 6 -6 15 2 12 10 21 10 40 2
16 -8 26 -8 31 -1 3 6 12 3 21 -8 8 -10 12 -13 9 -8 -2 6 4 16 15 23 26 16 25
-2 -1 -35 -11 -14 -20 -35 -19 -47 0 -19 1 -19 10 4 11 28 38 60 51 60 4 0 7
-3 6 -7 -2 -5 5 -19 14 -32 l17 -24 34 75 c19 42 39 78 44 81 12 8 73 -14 73
-26 0 -19 -107 -205 -138 -239 -19 -21 -29 -38 -21 -38 13 0 104 89 183 180
l47 55 -53 -87 c-29 -48 -88 -126 -131 -173 -72 -78 -76 -84 -48 -79 l29 6 -5
-43 c-16 -137 -60 -237 -152 -346 -106 -125 -308 -266 -536 -374 -163 -77
-170 -78 -256 -38 -165 75 -497 275 -549 331 -38 41 -33 8 6 -38 35 -42 130
-171 172 -234 9 -14 37 -52 63 -85 62 -81 66 -90 68 -165 2 -92 16 -171 50
-277 30 -97 26 -112 -11 -40 -53 105 -92 134 -308 228 -210 91 -527 274 -584
338 -19 21 -19 22 2 103 35 133 60 267 82 435 11 86 21 158 23 159 1 2 31 -32
65 -75 83 -103 185 -207 190 -193 2 7 -6 24 -18 39 -49 64 -150 223 -185 292
-27 55 -35 82 -31 104 5 25 3 28 -12 22 -41 -16 -70 -16 -83 -2 -12 12 -16 11
-31 -14 -39 -64 -128 -22 -128 60 0 32 -9 45 -65 101 -90 89 -108 134 -113
280 -5 138 6 187 55 241 32 35 40 39 84 39 60 0 104 -18 143 -56 38 -39 43
-56 61 -196 21 -169 39 -238 95 -353 57 -118 129 -203 228 -268 63 -43 206
-96 219 -83 3 3 -7 16 -23 28 -53 41 -102 101 -150 182 -62 104 -98 199 -123
321 -20 100 -43 286 -37 292 9 9 193 -79 209 -99 9 -13 40 -60 67 -104 57 -94
97 -136 60 -65 -26 51 -41 193 -21 205 6 4 34 11 62 15 48 8 50 7 44 -13 -9
-32 -23 -130 -19 -135 2 -2 14 0 26 6 15 7 30 7 45 0 32 -14 48 -4 85 52 35
54 43 59 52 36 3 -10 -13 -35 -44 -68 -27 -28 -50 -55 -50 -58 0 -19 35 -17
56 2 33 31 55 21 84 -38 14 -28 28 -52 33 -52 13 -1 7 29 -14 70 -11 23 -19
43 -16 45 2 2 18 -1 36 -7 23 -8 34 -19 38 -40 4 -22 11 -29 29 -29 29 0 44
32 44 91 0 21 3 39 7 39 8 0 64 -42 141 -107 60 -51 100 -71 72 -38 -7 9 -10
19 -6 23 9 8 46 -39 40 -50 -3 -4 2 -8 10 -8 22 0 20 7 -12 49 -46 58 -114
162 -110 167 2 2 19 -1 38 -6 47 -14 47 -7 -3 20 -23 13 -53 36 -67 51 -34 36
-91 63 -229 110 -64 22 -135 52 -159 66 -55 32 -63 25 -17 -16 29 -25 32 -31
17 -31 -35 0 -103 29 -143 61 -49 38 -50 31 -3 -21 l36 -40 -30 0 c-41 0 -151
26 -213 50 -62 25 -55 8 12 -25 27 -14 49 -27 49 -28 0 -1 -35 1 -77 5 -43 3
-93 7 -111 7 l-33 1 3 63 3 62 50 6 c152 20 359 100 555 216 86 50 263 207
343 302 93 111 267 371 267 397 0 5 -14 -12 -30 -38 -72 -115 -211 -291 -299
-379 -136 -136 -288 -246 -456 -329 -167 -83 -267 -116 -390 -132 -197 -24
-416 47 -528 171 -46 51 -109 161 -103 178 3 8 2 11 -3 8 -6 -3 -9 8 -9 25 l1
30 26 -32 c60 -75 119 -133 173 -169 104 -71 283 -130 388 -128 40 1 37 2 -30
14 -41 8 -102 23 -135 34 l-60 21 45 -5 c43 -4 42 -3 -25 20 -83 30 -81 29
-64 8 13 -15 12 -15 -8 -3 -12 8 -19 18 -16 23 3 4 -3 7 -13 5 -11 -2 -18 2
-17 9 2 7 -3 10 -11 7 -8 -3 -17 0 -22 7 -5 8 -3 10 7 4 8 -4 1 4 -16 18 -16
14 -33 23 -36 21 -4 -2 -14 8 -23 21 -9 14 -20 24 -24 21 -15 -9 -162 156
-162 182 0 6 23 -1 50 -14 119 -57 199 -77 330 -82 153 -5 212 8 355 78 195
95 420 263 577 430 50 52 87 88 82 80 -4 -8 61 57 146 145 383 399 509 504
605 505 17 0 37 5 45 10 22 14 80 12 140 -6z m-546 -133 c7 -6 15 -8 18 -6 3
3 3 -6 0 -21 -3 -15 -40 -64 -84 -110 -43 -47 -77 -88 -74 -93 3 -5 -4 -17
-17 -27 l-22 -19 20 25 c18 22 18 23 1 10 -10 -8 -42 -46 -71 -85 -51 -68 -93
-113 -101 -107 -3 1 -37 -29 -77 -66 -126 -121 -191 -175 -296 -246 -55 -38
-101 -74 -101 -79 0 -6 -3 -8 -6 -5 -3 4 -21 -10 -39 -31 -32 -35 -233 -151
-207 -119 9 11 10 18 2 23 -5 3 -10 1 -10 -4 0 -6 -7 -11 -16 -11 -9 0 -12 -5
-8 -12 4 -6 3 -8 -4 -5 -5 4 -24 31 -41 60 -16 28 -40 68 -53 87 -15 24 -17
31 -6 22 14 -12 22 -10 54 12 44 29 143 140 222 246 30 41 67 88 81 104 l26
30 -25 -17 c-39 -27 -112 -58 -128 -55 -15 3 167 154 261 217 49 34 63 50 25
30 -18 -9 -20 -9 -12 0 6 7 18 13 26 15 8 1 63 35 122 75 115 78 240 141 327
166 59 16 191 14 213 -4z m-2104 -337 c113 -119 162 -199 131 -218 -4 -3 -14
7 -21 22 l-14 27 -4 -25 c-5 -32 -22 -52 -38 -46 -8 3 -14 -6 -16 -27 -2 -20
-9 -32 -17 -32 -20 0 -70 102 -71 145 -1 19 -5 53 -9 75 -7 33 -9 25 -10 -50
-1 -95 3 -107 53 -169 35 -44 28 -59 -10 -20 l-27 29 17 -35 c10 -19 26 -52
38 -73 11 -21 18 -41 15 -43 -8 -8 -74 108 -90 158 -17 48 -34 182 -41 306
l-4 82 26 -19 c15 -10 56 -50 92 -87z m224 -210 c3 -26 6 -60 6 -76 0 -32 -36
-92 -50 -83 -4 2 -11 -10 -14 -28 l-7 -32 -14 25 c-11 22 -19 72 -16 106 1 7
17 35 36 63 19 28 35 55 35 61 0 5 4 10 9 10 4 0 11 -21 15 -46z m379 -46
c-122 -176 -174 -239 -229 -275 -47 -31 -32 -7 49 79 45 47 100 114 121 149
43 70 36 66 -58 -27 -34 -34 -81 -71 -104 -83 -43 -22 -49 -18 -43 22 0 4 -4
7 -9 7 -5 0 -10 8 -10 18 -1 17 -29 74 -30 59 0 -5 -5 -5 -11 -2 -18 12 30 52
95 80 62 26 181 52 249 54 l37 1 -57 -82z m531 43 c5 -8 -137 -171 -173 -198
-9 -7 -43 -12 -81 -12 -66 1 -65 3 3 14 24 4 56 22 90 50 28 24 69 59 90 76
43 36 43 48 0 25 -17 -8 -48 -17 -70 -20 -97 -11 -154 -37 -219 -97 -56 -52
-84 -70 -84 -54 0 12 163 193 183 203 12 7 65 13 117 15 52 1 105 4 117 5 12
1 24 -2 27 -7z m-1001 -351 c4 -19 77 135 84 178 10 59 23 44 23 -27 0 -82
-10 -111 -54 -166 -18 -22 -40 -53 -49 -70 l-15 -30 -15 55 c-33 116 -37 137
-37 187 0 29 6 64 12 79 12 25 14 18 30 -82 10 -60 19 -116 21 -124z m277 115
c-14 -17 -85 -39 -103 -32 -7 3 -3 8 8 12 11 4 38 15 60 25 44 20 54 18 35 -5z
m-430 -33 c0 -16 -12 -42 -30 -62 l-30 -35 22 63 c23 66 38 80 38 34z m794
-21 c29 -42 75 -146 76 -171 0 -8 -13 1 -30 20 -34 41 -130 176 -130 184 0 3
13 6 29 6 22 0 35 -9 55 -39z m94 -1 c21 -20 57 -71 106 -147 23 -38 24 -43 9
-43 -10 1 -40 30 -68 65 -27 35 -55 64 -61 64 -13 1 -45 67 -37 75 11 11 29 6
51 -14z m-365 -35 c-3 -9 -8 -14 -10 -11 -3 3 -2 9 2 15 9 16 15 13 8 -4z
m-506 -22 c-7 -16 -26 -54 -42 -85 -29 -62 -40 -70 -50 -39 -10 33 6 71 49
112 48 46 62 49 43 12z m557 -42 c-2 -3 -12 3 -22 13 -16 17 -16 18 5 5 12 -7
20 -15 17 -18z m61 -31 c17 -11 26 -20 20 -20 -5 0 -23 9 -40 20 -16 11 -25
20 -20 20 6 0 24 -9 40 -20z m70 -28 c-3 -3 -11 0 -18 7 -9 10 -8 11 6 5 10
-3 15 -9 12 -12z m-646 -712 c-5 -283 -13 -537 -19 -565 -6 -32 -7 178 -4 597
2 356 8 655 12 665 15 39 19 -202 11 -697z m2006 485 c0 -118 -1 -215 -1 -215
-1 0 -28 12 -60 26 -87 39 -141 53 -221 61 -40 3 -73 9 -73 13 0 4 12 13 28
20 77 36 91 45 123 71 49 41 21 36 -34 -6 -64 -49 -65 -44 -3 15 29 28 55 50
58 50 11 0 105 99 136 145 18 26 36 44 40 41 3 -4 6 -103 7 -221z m-1830 -252
c7 -422 7 -423 -13 -423 -21 0 -21 4 -22 389 -1 374 4 482 20 464 4 -4 11
-198 15 -430z m-260 386 c-4 -16 -17 -48 -30 -71 -21 -36 -24 -38 -30 -19 -9
29 2 61 33 94 33 34 35 34 27 -4z m375 -174 c62 -108 149 -225 199 -265 43
-36 30 -38 -44 -6 -76 34 -121 71 -172 140 -43 58 -43 59 -43 144 0 47 2 83 4
81 2 -2 27 -44 56 -94z m2759 -141 c0 -78 -2 -162 -5 -188 l-7 -47 -21 20
c-12 10 -47 32 -79 48 -48 25 -55 32 -43 42 8 7 29 47 46 89 18 42 39 93 49
112 l16 35 6 -35 c5 -28 7 -23 8 27 0 34 4 70 8 80 13 32 21 -32 22 -183z
m-3149 70 c0 -19 -4 -33 -9 -30 -4 3 -6 -5 -4 -17 2 -12 -17 -85 -42 -162 -25
-77 -59 -194 -76 -260 -40 -157 -66 -239 -96 -298 -34 -68 -23 -69 12 -1 16
30 33 58 37 60 14 9 9 -8 -7 -26 -9 -10 -13 -24 -8 -35 6 -18 7 -18 15 1 6 13
6 10 2 -11 -9 -47 -100 -237 -177 -370 -39 -66 -86 -149 -105 -185 -57 -104
-248 -379 -317 -456 -9 -11 -70 -89 -267 -344 -40 -52 -119 -161 -176 -241
-56 -81 -108 -151 -115 -157 -7 -6 1 32 20 89 36 110 37 116 35 207 -2 45 -5
61 -14 56 -8 -5 -9 2 -5 25 6 29 0 23 -50 -43 -32 -42 -59 -72 -61 -66 -2 6
26 64 63 128 114 197 250 395 551 801 159 214 360 508 433 634 29 50 78 133
108 184 58 99 149 292 194 413 37 102 53 140 56 140 2 0 3 -16 3 -36z m513
-202 c26 -12 47 -24 47 -26 0 -13 -126 39 -147 60 -8 8 -23 19 -34 24 -10 6
-19 18 -19 26 0 8 -4 13 -8 10 -5 -3 -9 0 -9 7 0 7 -3 21 -6 32 -4 12 21 -7
60 -45 38 -36 89 -76 116 -88z m-324 -210 c1 -275 9 -301 89 -302 37 0 45 40
50 242 l4 188 29 -43 c28 -41 29 -44 29 -184 0 -162 12 -210 82 -317 37 -57
39 -65 33 -111 -6 -48 -45 -167 -120 -370 -20 -55 -45 -122 -55 -150 -27 -76
-59 -142 -59 -125 0 8 6 33 14 55 16 42 20 74 5 40 -37 -89 -49 -125 -39 -119
8 5 10 0 6 -18 -9 -34 -58 -140 -63 -135 -2 2 5 25 17 51 33 76 14 65 -26 -15
-21 -40 -48 -90 -61 -111 -13 -21 -20 -38 -14 -38 5 0 21 21 34 48 34 65 32
38 -3 -40 -28 -63 -68 -130 -94 -158 -8 -8 -18 -26 -22 -40 -9 -31 -95 -146
-106 -143 -4 1 -23 -19 -41 -45 -51 -71 -54 -80 -18 -47 34 31 33 27 -6 -37
-19 -30 -34 -39 -81 -53 -32 -10 -67 -19 -78 -20 -27 -5 -183 -50 -218 -64
-16 -6 -32 -11 -37 -11 -6 0 32 62 83 137 203 302 425 821 489 1143 12 63 24
117 26 120 2 2 7 -2 12 -10 7 -10 10 -11 10 -2 0 6 11 12 24 12 22 0 26 6 35
53 19 99 30 243 36 482 3 132 8 287 12 345 6 96 8 101 14 55 4 -27 8 -146 8
-263z m2851 111 c97 -37 95 -32 66 -159 -41 -180 -59 -206 -130 -186 l-30 8
40 29 c60 44 63 49 15 25 -54 -27 -141 -37 -141 -16 0 8 14 19 30 25 17 5 30
13 30 17 0 7 -1 7 -164 -35 -66 -17 -122 -29 -124 -26 -3 3 -16 -5 -29 -17
-13 -12 -23 -17 -23 -11 0 5 51 55 113 110 128 115 168 158 159 169 -4 4 -2 4
4 1 12 -7 84 73 84 93 0 8 7 9 18 5 9 -4 46 -18 82 -32z m-2649 -9 c14 -38 4
-41 -14 -5 -9 17 -11 31 -6 31 5 0 14 -12 20 -26z m464 -3 c-3 -6 0 -14 7 -20
85 -68 87 -70 93 -129 28 -252 91 -506 145 -583 11 -15 20 -31 20 -37 0 -5 9
-19 20 -32 19 -22 26 -40 15 -40 -11 0 -142 90 -160 109 -17 19 -17 22 -1 46
17 26 13 71 -5 60 -5 -4 -9 2 -9 12 0 10 -12 47 -25 83 -21 53 -24 57 -19 25
4 -22 7 -62 6 -89 0 -27 4 -59 10 -70 10 -20 10 -20 -7 -6 -28 23 -82 148
-107 247 -18 71 -22 116 -22 233 0 158 6 200 30 200 8 0 13 -4 9 -9z m258 -78
c9 -3 17 -10 17 -15 0 -11 -134 -7 -146 4 -3 4 -4 18 0 32 l6 26 53 -21 c28
-11 60 -23 70 -26z m-1216 -200 c-3 -10 -5 -4 -5 12 0 17 2 24 5 18 2 -7 2
-21 0 -30z m3811 -180 c90 -127 159 -211 402 -494 252 -294 476 -578 588 -746
59 -87 162 -271 162 -288 0 -4 -32 37 -71 91 -85 118 -109 145 -120 138 -5 -3
-6 3 -2 13 6 16 5 16 -10 4 -15 -12 -17 -12 -12 2 4 8 2 18 -4 22 -17 10 -13
-27 7 -60 10 -16 21 -38 25 -47 5 -15 3 -16 -19 -6 -14 6 -23 17 -20 24 3 7
-2 11 -12 10 -17 -3 -25 -27 -8 -25 10 1 26 -21 26 -36 0 -5 -5 -3 -10 5 -5 8
-10 11 -10 7 0 -5 13 -27 28 -50 16 -23 32 -49 36 -57 18 -34 -648 648 -766
785 -38 44 -84 96 -103 115 -97 101 -285 365 -350 489 -22 43 -5 63 20 25 10
-15 34 -46 54 -68 20 -23 41 -48 46 -57 6 -9 22 -34 37 -56 14 -22 36 -57 47
-79 19 -35 21 -36 22 -14 0 25 0 25 9 3 16 -39 19 -25 4 22 -27 91 -44 172
-58 270 -7 55 -20 121 -29 147 -8 27 -12 46 -7 43 4 -2 48 -62 98 -132z
m-1139 124 c-2 -1 -13 -9 -24 -17 -19 -14 -19 -14 -6 3 7 9 18 17 24 17 6 0 8
-1 6 -3z m-2708 -44 c-12 -20 -14 -14 -5 12 4 9 9 14 11 11 3 -2 0 -13 -6 -23z
m-20 -46 c-10 -9 -11 -8 -5 6 3 10 9 15 12 12 3 -3 0 -11 -7 -18z m2775 -54
c-11 -11 -19 6 -11 24 8 17 8 17 12 0 3 -10 2 -21 -1 -24z m-2661 -60 c-69
-513 -226 -957 -473 -1338 -185 -286 -347 -435 -472 -435 -97 0 -113 159 -30
300 36 61 77 117 389 530 119 158 234 328 336 495 62 102 219 408 235 458 16
51 23 47 15 -10z m3488 -248 c162 -226 301 -385 647 -740 124 -127 251 -262
282 -301 113 -139 168 -260 168 -371 0 -104 -61 -127 -208 -77 -241 80 -528
350 -748 705 -130 208 -240 472 -301 723 -33 135 -35 149 -19 158 9 5 28 20
44 33 l27 24 15 -22 c8 -12 50 -71 93 -132z m-2823 -7 c0 -12 -6 -9 -26 13
-19 22 -19 22 4 8 12 -8 22 -17 22 -21z m2540 13 c0 -55 98 -345 180 -531 273
-620 882 -1200 1177 -1121 26 7 56 19 65 28 10 9 21 14 24 11 11 -12 -27 -68
-56 -83 -61 -32 -222 -8 -309 45 -38 24 -54 21 -17 -3 13 -9 77 -62 143 -118
136 -117 325 -256 462 -342 140 -87 140 -87 45 -84 -86 2 -75 -3 -298 146 -22
14 -72 56 -112 94 -39 37 -76 67 -81 67 -15 0 -134 126 -126 134 4 4 3 6 -2 5
-6 -2 -78 64 -162 146 -83 83 -171 168 -194 190 l-43 40 44 -50 c24 -27 163
-174 310 -325 379 -392 413 -429 429 -458 7 -15 29 -44 49 -64 l36 -38 -40 0
c-34 0 -51 9 -110 57 -113 92 -113 92 14 -47 21 -23 21 -25 5 -32 -10 -3 -42
-7 -70 -7 -47 -1 -54 2 -67 27 -8 15 -23 36 -33 47 -10 11 -38 46 -62 78 -24
31 -45 57 -48 57 -5 0 -2 -6 69 -113 33 -48 56 -92 53 -97 -3 -6 -30 -10 -58
-10 l-52 1 -59 75 c-38 48 -61 71 -66 64 -5 -9 -9 -9 -14 -1 -4 6 -2 11 3 11
6 0 11 5 11 11 0 6 -7 9 -14 6 -9 -4 -13 -1 -11 6 7 18 -22 50 -36 41 -8 -4
-10 -3 -5 4 4 6 -5 30 -20 52 -28 43 -44 48 -24 8 10 -19 10 -21 -1 -10 -7 6
-13 24 -14 40 0 15 -6 27 -13 27 -8 0 -20 9 -28 19 -11 16 -11 22 -1 29 9 6 8
8 -2 5 -19 -5 -186 246 -175 263 4 7 3 9 -3 6 -6 -4 -14 3 -17 16 -3 12 -20
38 -37 57 -21 24 -27 27 -17 10 8 -14 30 -52 48 -85 18 -33 43 -74 56 -92 13
-17 24 -34 24 -37 0 -4 24 -43 53 -89 30 -45 71 -111 92 -147 22 -36 62 -99
90 -140 89 -130 100 -151 84 -161 -8 -5 -17 -9 -20 -9 -10 0 -138 118 -133
123 2 2 -41 51 -96 108 -56 57 -93 92 -84 76 9 -15 22 -31 29 -35 19 -12 151
-155 138 -151 -13 4 -117 105 -239 231 -257 266 -455 620 -553 990 -22 81 -27
123 -9 76 16 -46 26 -32 17 25 -17 108 -47 241 -49 217 -3 -34 -3 -30 4 -80 5
-35 4 -42 -5 -33 -7 7 -20 92 -30 200 -23 232 -26 249 -28 148 -1 -99 22 -327
44 -426 99 -448 276 -780 609 -1149 109 -120 225 -231 316 -302 l35 -28 -57 0
-58 0 -95 95 c-53 52 -92 89 -89 82 4 -7 16 -25 28 -42 l20 -30 -24 20 c-66
57 -229 235 -215 235 9 0 135 -133 135 -142 0 -4 10 -13 23 -19 21 -11 21 -11
-3 17 -14 16 -65 72 -115 124 -195 207 -382 491 -460 698 -15 39 -28 72 -30
72 -1 0 -1 -21 1 -46 2 -26 2 -45 0 -43 -4 4 -22 48 -96 234 -15 39 -30 81
-34 95 l-7 25 15 -25 c9 -14 16 -32 16 -40 0 -8 9 -26 20 -40 l20 -25 0 24 c0
13 -15 81 -34 150 -37 137 -51 204 -62 295 -5 44 -9 55 -16 42 -9 -17 -28 -13
-28 5 0 6 4 8 9 5 5 -4 7 3 4 14 -10 37 -23 9 -23 -48 0 -71 19 -109 21 -42 1
25 3 38 4 30 7 -33 30 -176 30 -185 0 -5 4 -13 9 -16 4 -4 10 -37 11 -75 3
-66 3 -68 -10 -37 -13 30 -29 91 -70 264 -35 152 -61 488 -37 502 4 3 5 -32 4
-78 -2 -48 1 -91 7 -102 9 -16 11 -14 11 12 1 17 4 24 7 17 2 -6 10 -9 15 -6
6 4 8 2 4 -4 -3 -6 -2 -13 4 -17 5 -3 10 -25 11 -48 0 -23 4 -60 9 -82 8 -36
9 -35 4 15 -7 83 -7 291 1 346 8 52 19 76 60 120 14 15 25 33 25 40 0 8 5 14
10 14 6 0 10 -8 10 -19z m-2634 -87 c-3 -42 -15 -105 -26 -141 -11 -37 -19
-67 -17 -69 7 -7 36 65 48 119 7 32 17 61 22 64 6 4 7 -5 2 -23 -5 -16 -9 -47
-10 -69 0 -22 -3 -45 -6 -50 -3 -6 -12 -36 -19 -68 -8 -36 -18 -56 -25 -53 -8
3 -10 -4 -7 -21 4 -20 2 -24 -8 -18 -9 5 -11 4 -6 -4 7 -11 -40 -151 -51 -151
-3 0 -3 9 0 20 9 33 -12 11 -35 -36 -11 -25 -22 -43 -24 -42 -4 4 41 131 57
159 5 10 6 19 2 19 -5 0 -24 -39 -42 -87 -70 -181 -250 -531 -330 -641 -13
-18 -22 -35 -20 -37 13 -12 195 288 221 365 3 8 9 12 13 8 6 -6 -78 -192 -95
-208 -18 -18 -49 -71 -60 -105 -8 -22 -21 -47 -29 -57 -14 -14 -171 -61 -179
-53 -2 2 19 36 46 77 153 224 358 622 467 903 14 39 42 103 61 143 19 39 37
86 41 102 10 53 14 32 9 -46z m69 -15 c-23 -68 -28 -58 -7 14 9 31 18 52 20
47 2 -5 -4 -33 -13 -61z m2314 -501 c35 -106 85 -260 113 -343 65 -198 192
-493 260 -602 37 -61 10 -33 -50 50 -199 279 -338 601 -371 864 -14 109 -23
223 -18 223 2 0 32 -87 66 -192z m-2403 -19 c-15 -34 -15 -34 -9 -4 7 35 13
48 20 42 2 -3 -3 -20 -11 -38z m-122 -34 c-4 -8 -8 -15 -10 -15 -2 0 -4 7 -4
15 0 8 4 15 10 15 5 0 7 -7 4 -15z m-22 -20 c3 -13 2 -22 -3 -20 -4 3 -17 -15
-29 -40 -27 -55 -34 -58 -16 -7 15 40 38 92 41 92 2 0 5 -11 7 -25z m105 -57
c-3 -8 -6 -5 -6 6 -1 11 2 17 5 13 3 -3 4 -12 1 -19z m252 -112 c140 -112 365
-237 621 -346 69 -29 126 -54 127 -55 2 -1 -5 -41 -14 -89 -17 -87 -18 -88
-58 -108 -88 -44 -149 -125 -161 -216 l-6 -50 -112 91 c-189 157 -370 340
-440 447 -131 199 -132 205 -80 324 28 61 41 81 47 71 4 -8 39 -39 76 -69z
m1918 -121 l-4 -140 24 110 c13 61 27 127 32 148 5 21 12 41 16 45 3 4 4 -4 1
-18 -9 -40 -26 -192 -25 -225 l1 -30 8 35 c5 19 12 71 16 115 9 115 23 128 24
22 0 -48 6 -120 14 -160 8 -40 17 -108 21 -152 5 -71 16 -162 30 -247 5 -30
-10 -36 -43 -19 -9 6 -41 18 -71 27 -40 12 -50 19 -38 25 9 6 20 36 27 81 6
40 15 90 20 111 4 20 6 37 4 37 -9 0 -36 -65 -48 -117 -13 -51 -14 -54 -15
-23 -1 27 -4 32 -11 20 -8 -11 -9 -9 -5 11 4 14 -1 51 -10 82 -22 76 -22 350
0 430 l7 28 15 -28 c12 -22 14 -56 10 -168z m-2221 114 c-9 -19 -15 -29 -16
-22 0 15 22 64 27 60 2 -2 -3 -19 -11 -38z m-29 -46 c-3 -10 -5 -2 -5 17 0 19
2 27 5 18 2 -10 2 -26 0 -35z m-14 -40 c-13 -36 -87 -163 -95 -163 -4 0 -8 -7
-8 -14 0 -20 -48 -71 -58 -61 -4 4 -1 10 6 12 6 3 12 11 12 19 0 9 4 13 9 10
18 -12 22 28 4 42 -17 13 -16 13 6 7 16 -5 21 -4 17 4 -5 7 -1 9 8 5 11 -4 16
0 16 11 0 9 -4 13 -10 10 -5 -3 -10 -1 -10 5 0 7 8 9 20 5 11 -3 20 -2 20 3 0
4 14 34 31 65 30 56 45 74 32 40z m-52 -50 c-12 -20 -14 -14 -5 12 4 9 9 14
11 11 3 -2 0 -13 -6 -23z m216 -45 c34 -65 39 -79 19 -54 -20 24 -22 21 -75
-74 -24 -44 -32 -64 -18 -47 12 15 30 27 39 27 10 0 29 5 44 12 23 11 28 10
45 -11 11 -13 19 -18 19 -13 0 6 -4 14 -10 17 -5 3 -10 14 -10 23 0 19 52 -56
96 -138 16 -30 49 -84 73 -120 70 -104 155 -225 161 -230 3 -3 40 -48 81 -100
42 -52 83 -101 92 -109 9 -7 14 -18 10 -24 -3 -5 -1 -7 4 -4 6 4 23 -9 37 -27
l26 -35 -36 -68 c-40 -77 -73 -118 -71 -88 2 20 -71 54 -258 120 -76 27 -122
50 -149 75 -87 78 -238 346 -300 534 -32 95 -35 111 -23 125 27 29 167 242
167 251 0 20 11 8 37 -42z m1298 -179 c94 -116 113 -149 86 -149 -5 0 -46 45
-90 100 -85 103 -115 130 -124 107 -6 -15 18 -174 31 -209 17 -42 36 -47 29
-7 -4 19 -10 59 -13 89 -6 50 -5 54 9 40 9 -8 17 -21 19 -29 2 -8 16 -26 32
-41 16 -15 30 -38 31 -51 1 -13 8 -23 14 -21 6 1 11 -2 11 -8 0 -5 -1 -10 -2
-10 -2 -1 -39 -7 -83 -15 -43 -8 -80 -13 -80 -12 -13 22 -45 195 -41 215 11
43 49 132 57 132 4 0 55 -59 114 -131z m1025 -28 c0 -45 -6 -37 -13 18 -4 29
-2 40 4 30 5 -7 9 -29 9 -48z m-2546 -39 c3 -5 7 -33 10 -63 4 -30 3 -48 0
-41 -3 6 -19 12 -36 12 -30 0 -339 -67 -347 -76 -2 -2 70 -4 160 -5 90 0 186
-6 213 -12 l49 -12 28 -80 c79 -221 167 -406 206 -432 32 -22 208 -97 335
-144 83 -30 86 -32 76 -54 -13 -29 -3 -89 18 -106 8 -7 19 -20 24 -29 8 -14
-15 -16 -248 -14 l-257 3 -42 61 c-108 156 -243 315 -303 356 -19 13 -45 31
-57 40 -21 15 -20 10 11 -57 32 -70 65 -159 69 -190 2 -8 6 -19 9 -25 7 -10
10 -60 6 -96 -1 -10 -6 -18 -11 -18 -6 0 -2 -9 8 -20 29 -32 10 -24 -68 29
-40 27 -90 60 -113 74 -30 18 -49 43 -75 92 -48 95 -145 190 -247 243 -79 41
-208 82 -261 82 -48 0 -53 11 -34 65 10 26 32 63 49 82 46 50 86 52 204 14
107 -35 103 -34 95 -21 -12 19 11 10 79 -31 103 -62 91 -38 -15 31 -52 34 -93
64 -92 68 1 4 -6 8 -15 9 -9 1 -54 15 -100 32 -46 17 -100 31 -120 31 -20 0
-32 4 -26 8 5 5 126 37 269 71 143 35 319 78 390 96 146 37 152 38 159 27z
m1226 -50 c11 -20 27 -47 36 -59 l16 -23 -51 0 -51 0 0 34 c0 49 11 96 21 90
5 -3 18 -22 29 -42z m3183 -80 c92 -142 197 -358 197 -403 0 -10 -60 10 -170
58 -47 20 -86 38 -88 39 -2 1 7 22 19 46 42 78 29 204 -36 363 -12 30 22 -15
78 -103z m-2551 34 c59 -27 137 -117 140 -160 1 -17 0 -52 -1 -78 -2 -35 3
-57 19 -82 33 -54 41 -93 24 -111 -33 -33 -139 -13 -227 43 -53 32 -39 39 30
15 84 -30 153 -47 160 -40 12 12 -6 34 -41 51 -20 9 -36 19 -36 22 0 7 54 -8
70 -20 8 -6 4 5 -8 25 -18 29 -22 52 -22 113 0 86 -13 120 -59 159 -16 13 -27
27 -25 30 10 9 -85 20 -122 14 -40 -7 -135 -58 -117 -64 6 -2 30 5 52 16 50
26 128 28 169 4 56 -32 77 -77 79 -170 l1 -84 -31 7 c-18 3 -36 9 -42 12 -5 3
-29 7 -52 9 -23 1 -51 7 -62 13 -11 5 -33 10 -49 10 -17 0 -37 9 -48 21 -19
22 -19 22 3 10 25 -13 43 3 24 22 -9 9 -11 7 -6 -8 6 -18 5 -18 -5 -2 -18 27
-3 37 56 37 41 0 54 4 54 15 0 8 -14 17 -35 21 -19 3 -35 9 -35 13 0 4 -8 7
-17 8 -10 1 -27 4 -38 6 -11 3 -24 6 -28 6 -5 1 -5 6 -1 12 4 7 0 9 -13 5 -15
-5 -19 -1 -18 16 1 30 14 50 51 77 60 44 120 46 206 7z m710 -21 c3 -13 1 -22
-3 -19 -9 5 -13 44 -5 44 2 0 6 -11 8 -25z m-1824 -228 c161 -132 227 -179
244 -175 8 2 46 -21 85 -49 61 -46 71 -58 77 -92 4 -26 16 -47 35 -64 34 -28
120 -52 156 -43 24 6 25 5 25 -52 0 -45 5 -67 23 -93 l23 -34 111 3 c118 4
140 -2 209 -54 17 -13 33 -24 36 -24 4 0 11 22 18 50 16 65 12 76 -101 262
-94 156 -128 222 -129 248 0 8 23 -17 50 -55 54 -75 56 -77 140 -175 99 -115
241 -240 272 -240 9 0 68 121 68 139 0 6 11 35 25 65 l25 55 72 -67 c128 -119
328 -316 328 -322 0 -3 -16 -12 -35 -19 -40 -14 -51 -41 -41 -96 7 -33 6 -35
-22 -35 -16 0 -63 -3 -104 -6 l-76 -7 -7 32 c-8 38 -33 53 -77 44 -48 -9 -82
-28 -113 -64 -25 -30 -31 -33 -106 -37 -55 -3 -79 -1 -79 7 0 17 -70 110 -90
121 -25 13 -137 13 -198 -1 l-49 -12 -94 63 c-353 237 -664 543 -894 880 l-58
85 62 -67 c34 -37 119 -114 189 -171z m1864 129 c7 -7 21 -15 31 -19 12 -5 16
-13 12 -25 -3 -11 1 -32 10 -48 8 -16 15 -35 15 -43 0 -8 11 -33 25 -56 13
-23 21 -46 17 -51 -4 -5 0 -3 8 3 11 9 19 8 32 -1 20 -15 62 -104 73 -156 4
-19 12 -41 17 -47 6 -7 7 -13 2 -13 -12 1 -79 86 -146 185 -49 71 -73 127 -94
217 -3 16 -11 25 -17 21 -6 -4 -8 2 -5 15 4 12 2 25 -3 28 -5 3 -9 15 -8 27 0
22 0 22 10 -1 5 -13 14 -29 21 -36z m396 -4 c11 -26 32 -67 47 -92 24 -40 24
-42 3 -18 -35 42 -101 169 -85 162 8 -3 24 -26 35 -52z m-1698 38 c11 -7 8
-10 -16 -10 -64 0 -244 -117 -244 -159 0 -8 5 -7 16 4 15 14 17 14 29 -2 7
-10 17 -15 21 -10 4 4 2 7 -4 7 -7 0 -12 5 -12 11 0 6 6 9 13 6 10 -4 13 2 9
18 -4 25 29 52 48 40 6 -4 9 -1 8 5 -3 12 95 59 125 60 19 0 97 -46 97 -58 0
-4 -12 -15 -27 -24 -16 -9 -46 -34 -67 -55 -70 -68 -93 -123 -26 -59 50 47 72
56 116 49 49 -8 69 -26 55 -51 -15 -28 -83 -86 -137 -118 -59 -34 -66 -43 -48
-61 8 -8 14 -19 14 -24 0 -5 12 -9 26 -9 14 0 23 4 20 9 -3 4 7 19 22 32 25
22 25 22 8 2 -12 -15 -15 -23 -7 -23 7 0 18 14 24 30 6 17 17 30 24 30 6 0 16
8 22 17 19 35 22 4 2 -38 -10 -24 -24 -60 -31 -81 -12 -41 -30 -52 -101 -63
-39 -6 -76 32 -84 86 -5 33 -14 49 -35 64 -16 11 -63 44 -104 72 -86 61 -88
63 -88 108 0 38 30 107 43 99 5 -3 6 1 3 9 -7 18 89 80 128 83 16 1 32 5 35 8
10 10 107 7 123 -4z m903 -36 c153 -41 221 -63 192 -64 -31 0 -348 70 -360 80
-15 12 -20 30 -9 30 3 0 82 -21 177 -46z m-3749 4 c-13 -58 -6 -157 15 -204
14 -30 16 -44 8 -45 -7 0 -48 -6 -92 -13 -44 -8 -83 -12 -87 -9 -11 6 144 303
158 303 3 0 2 -15 -2 -32z m3042 16 c-3 -7 0 -11 8 -8 12 5 63 -60 83 -108 10
-22 9 -27 -5 -32 -9 -3 -27 -10 -39 -15 -21 -9 -25 -6 -44 37 -12 26 -35 66
-50 89 -26 37 -27 42 -11 45 38 9 63 5 58 -8z m-126 -20 c0 -2 -9 0 -20 6 -11
6 -20 13 -20 16 0 2 9 0 20 -6 11 -6 20 -13 20 -16z m50 -57 c0 -6 -9 -2 -20
8 -11 10 -20 23 -20 28 0 6 9 2 20 -8 11 -10 20 -23 20 -28z m1069 -43 c22
-50 193 -299 312 -455 64 -83 105 -154 75 -130 -23 20 -133 157 -163 203 -13
21 -27 37 -32 34 -9 -6 -22 11 -72 99 -38 68 -39 69 -34 30 4 -22 11 -53 17
-68 32 -83 -34 1 -103 132 -48 91 -72 115 -130 133 -53 15 -54 42 -1 32 48
-10 76 -8 80 6 7 20 39 10 51 -16z m-1389 2 c0 -3 -4 -8 -10 -11 -5 -3 -10 -1
-10 4 0 6 5 11 10 11 6 0 10 -2 10 -4z m-2407 -72 c32 3 67 10 77 16 11 6 20
8 20 4 0 -15 -92 -114 -106 -114 -20 0 -17 9 8 30 22 18 22 18 -19 18 -48 1
-95 22 -117 54 -25 35 -19 37 32 11 40 -21 56 -24 105 -19z m3513 -23 c67 -31
77 -41 68 -64 -4 -12 -19 -6 -72 31 -37 25 -71 49 -76 54 -21 18 22 7 80 -21z
m524 -21 c0 -13 -1 -13 -10 0 -5 8 -10 22 -10 30 0 13 1 13 10 0 5 -8 10 -22
10 -30z m19 8 c6 -18 7 -28 2 -23 -10 12 -25 55 -18 55 3 0 10 -15 16 -32z
m443 -97 c12 -20 25 -38 28 -41 10 -8 96 -124 104 -140 13 -26 -61 60 -133
155 -38 50 -72 101 -76 115 -6 20 -2 18 24 -14 17 -22 41 -55 53 -75z m-887
11 c-3 -3 -11 0 -18 7 -9 10 -8 11 6 5 10 -3 15 -9 12 -12z m-454 -55 c41 -19
98 -40 127 -47 29 -6 62 -20 73 -29 l22 -17 -33 -87 c-19 -48 -37 -87 -42 -87
-11 0 -10 2 8 39 l16 32 -38 34 c-22 19 -68 56 -103 82 -55 41 -124 113 -109
113 3 0 39 -15 79 -33z m639 -52 c33 -22 45 -34 30 -30 -32 9 -155 82 -172
102 -17 21 70 -23 142 -72z m-708 -2 c18 -22 121 -95 148 -106 12 -4 12 -6 -2
-6 -28 -1 -21 -16 22 -46 24 -17 36 -31 30 -35 -7 -5 -6 -11 5 -20 19 -16 20
-34 0 -23 -37 21 -226 217 -255 265 l-32 53 33 -30 c18 -16 41 -40 51 -52z
m548 -26 c135 -95 308 -199 524 -316 88 -48 186 -103 216 -124 63 -41 146
-114 140 -121 -9 -9 -134 11 -138 22 -3 11 -95 77 -139 101 -18 9 -22 9 -17
-2 2 -7 25 -23 50 -35 25 -12 42 -27 39 -32 -3 -6 0 -10 8 -10 8 0 20 -6 26
-14 9 -11 4 -12 -29 -6 -28 5 -43 4 -48 -5 -14 -24 -54 -36 -137 -42 -81 -6
-84 -7 -87 -32 -3 -23 -9 -16 -48 49 -25 41 -69 103 -97 138 -29 35 -50 69
-46 75 3 5 1 7 -5 3 -9 -5 -70 52 -155 147 -15 17 -25 38 -22 45 4 10 0 12
-12 8 -14 -6 -15 -5 -6 5 17 18 73 19 66 2 -3 -7 -11 -13 -19 -13 -8 0 -14 -5
-14 -10 0 -12 40 6 53 24 5 7 6 3 3 -8 -5 -14 -2 -17 10 -12 20 8 46 -12 37
-28 -3 -6 -3 -8 2 -4 7 7 64 -17 75 -31 3 -4 19 -15 35 -24 28 -17 27 -16 -5
12 -19 17 -47 35 -62 42 -16 6 -28 15 -28 19 0 14 -161 131 -171 125 -5 -4 -8
-2 -7 3 2 5 -31 41 -72 81 -83 81 -78 79 80 -32z m-866 -179 c-3 -38 -10 -68
-15 -68 -5 0 -9 6 -9 13 0 8 -4 7 -10 -3 -6 -9 -10 -10 -10 -3 0 6 5 15 10 18
8 5 7 11 -1 21 -13 16 -6 124 13 188 l13 41 8 -70 c4 -38 4 -100 1 -137z m67
167 c5 4 6 -1 2 -10 -5 -13 -7 -14 -14 -3 -5 7 -8 18 -8 23 0 6 3 4 6 -3 2 -6
9 -10 14 -7z m157 -149 c64 -115 76 -150 46 -125 -43 36 -145 230 -144 275 1
17 37 -38 98 -150z m-2722 134 c141 -11 257 -36 325 -70 61 -32 134 -104 164
-163 25 -51 34 -127 15 -127 -14 0 -13 -57 1 -66 7 -4 10 -25 6 -58 -7 -65
-127 -426 -178 -531 -46 -97 -120 -190 -151 -190 -12 0 -23 -7 -25 -15 -4 -13
-3 -13 6 0 5 8 12 12 16 9 3 -3 -5 -14 -17 -25 -12 -10 -18 -13 -14 -6 11 19
-1 14 -53 -21 -26 -18 -62 -39 -79 -46 -37 -15 -42 -31 -11 -31 22 0 79 -28
91 -45 4 -5 8 -6 8 -1 0 17 50 -45 56 -70 17 -67 -3 -169 -79 -397 -42 -126
-91 -256 -109 -290 -59 -110 -158 -193 -282 -234 -45 -15 -113 -18 -544 -23
-364 -4 -492 -2 -492 6 0 7 52 162 116 345 131 379 140 404 410 1149 85 236
144 410 144 427 0 8 -14 13 -37 13 -28 0 -34 3 -23 10 64 41 258 -47 325 -149
25 -36 25 -41 11 -63 -13 -20 -216 -577 -216 -594 0 -3 84 -4 188 -2 163 4
193 7 233 25 63 29 121 99 154 186 67 178 195 569 195 594 0 37 -33 89 -71
112 -58 35 -150 46 -409 46 -258 0 -338 -8 -539 -52 -248 -54 -464 -164 -564
-286 -39 -48 -97 -158 -97 -184 0 -15 1 -15 14 2 13 18 14 18 19 -1 41 -157
52 -191 64 -205 8 -10 19 -48 24 -85 11 -82 46 -157 95 -208 20 -20 34 -40 31
-42 -10 -11 -223 87 -298 136 -154 101 -258 249 -281 398 -40 256 153 510 497
654 187 79 490 146 755 167 152 12 454 13 606 1z m2101 -213 c-8 -6 -6 -7 5
-3 11 3 36 -11 70 -39 28 -25 56 -45 61 -45 5 0 6 -7 3 -16 -3 -9 -2 -12 5 -8
6 3 20 -3 32 -13 24 -21 123 -87 227 -149 36 -21 74 -44 85 -51 11 -7 52 -28
90 -47 60 -30 65 -35 33 -30 -21 4 -68 -2 -115 -14 -140 -36 -353 -74 -376
-68 -12 3 -36 18 -53 33 -17 16 -46 41 -65 56 -122 101 -196 192 -239 297 -41
99 -40 144 6 237 l37 73 103 -102 c73 -72 100 -105 91 -111z m470 190 c-4 6
-3 14 3 18 5 3 10 3 11 -2 5 -47 7 -63 14 -96 5 -26 12 -37 21 -33 22 9 43 -4
37 -21 -5 -12 -3 -14 8 -8 12 8 12 6 0 -9 -8 -9 -20 -15 -28 -12 -8 3 -11 1
-8 -4 8 -14 42 -13 47 1 2 7 12 -1 22 -16 10 -15 13 -25 8 -21 -21 13 -116 26
-121 17 -3 -5 -23 -12 -45 -16 -34 -7 -38 -6 -33 11 3 11 11 63 18 116 12 97
13 98 32 80 11 -9 17 -12 14 -5z m-4197 -25 c0 -22 -146 -40 -287 -35 -79 3
-143 3 -143 0 0 -4 20 -50 45 -102 47 -99 64 -155 48 -155 -8 0 -143 268 -143
284 0 3 107 7 238 9 130 1 238 3 240 5 1 1 2 -2 2 -6z m5400 -57 c-1 -5 -12 4
-25 20 -14 17 -25 35 -25 40 1 6 12 -3 25 -20 14 -16 25 -34 25 -40z m-777 28
c-7 -2 -21 -2 -30 0 -10 3 -4 5 12 5 17 0 24 -2 18 -5z m37 -25 c0 -18 -2 -20
-9 -8 -6 8 -7 18 -5 22 9 14 14 9 14 -14z m-4830 -87 c0 -12 -46 -41 -54 -34
-12 12 -6 24 17 33 29 12 37 12 37 1z m8688 -8 c-7 -17 -65 -108 -91 -145 -48
-67 -43 -33 6 47 26 42 47 77 47 78 0 1 -223 1 -495 -1 -423 -2 -499 0 -523
12 -24 14 30 15 516 16 299 0 542 -3 540 -7z m-2228 -147 c14 -18 14 -18 -7
-6 -12 8 -19 18 -16 23 3 4 6 7 7 5 1 -2 8 -12 16 -22z m303 -13 c-3 -7 -10
-10 -15 -7 -6 4 -5 10 3 15 11 7 11 9 1 9 -7 0 -10 5 -6 11 9 15 24 -9 17 -28z
m37 -23 c9 -16 8 -20 -5 -20 -9 0 -13 5 -10 10 3 6 1 10 -4 10 -6 0 -11 5 -11
10 0 17 19 11 30 -10z m-4225 0 c18 -8 17 -9 -7 -9 -16 -1 -28 4 -28 9 0 12 8
12 35 0z m5754 -69 c42 -53 89 -155 96 -210 10 -70 13 -77 28 -57 6 9 12 39
11 68 l0 51 27 -32 c54 -65 58 -131 17 -281 -121 -448 -245 -660 -475 -813
-138 -92 -279 -134 -490 -145 l-136 -7 -17 -60 c-9 -33 -50 -150 -89 -260
-107 -295 -100 -260 -61 -300 l34 -35 -1820 0 c-1000 0 -1875 -3 -1944 -6
l-125 -5 -40 36 c-22 21 -53 48 -70 61 l-30 24 1928 -2 c1060 -2 1927 0 1927
5 0 4 -22 51 -49 105 l-49 98 99 289 c188 546 330 967 365 1078 19 62 36 118
39 124 3 9 23 0 60 -26 30 -21 84 -51 120 -66 73 -31 76 -40 50 -115 -8 -24
-13 -45 -11 -47 2 -2 12 19 21 47 17 51 30 58 48 28 7 -10 2 -35 -16 -84 -14
-38 -53 -156 -88 -261 l-63 -193 -33 0 c-28 0 -35 -5 -48 -36 -8 -20 -15 -40
-15 -45 0 -27 204 8 283 47 66 34 128 93 161 155 42 75 176 485 176 534 0 74
-10 77 -229 76 -185 -2 -192 -1 -240 24 -50 25 -182 130 -275 218 l-49 47 344
3 c189 1 401 3 471 5 l126 2 31 -39z m-2882 -61 c92 -130 100 -150 83 -202
l-14 -43 -6 40 -6 40 -20 -40 c-12 -22 -27 -57 -33 -77 -12 -37 -14 -38 -61
-38 -27 0 -60 -4 -74 -10 -16 -6 -27 -6 -31 0 -4 6 6 49 22 97 21 64 37 96 62
120 19 18 32 36 28 39 -8 9 -107 -6 -107 -16 0 -4 -11 -11 -24 -14 -14 -3 -38
-19 -54 -36 -17 -16 -32 -27 -35 -22 -2 4 -2 1 0 -7 5 -21 -106 -383 -124
-403 -20 -22 -22 -22 107 1 58 11 173 27 257 36 l152 18 34 101 c40 115 87
277 87 300 0 9 -11 18 -25 22 -54 14 -18 21 128 27 83 4 208 10 277 13 l125 6
-50 -35 c-94 -65 -103 -84 -250 -526 -69 -206 -121 -347 -125 -337 -3 10 -12
-6 -23 -46 -9 -35 -36 -124 -58 -198 -34 -111 -77 -253 -95 -317 -2 -9 -27
-13 -76 -14 -40 0 -111 -4 -158 -9 -47 -4 -86 -7 -86 -6 -1 0 18 62 43 136 24
74 57 176 73 225 16 50 52 155 79 235 28 79 51 145 51 146 0 0 -55 -7 -122
-18 -360 -54 -460 -72 -463 -82 -5 -21 -107 -342 -151 -480 -25 -77 -43 -147
-41 -156 4 -15 -13 -18 -137 -29 -77 -6 -156 -14 -174 -18 -31 -5 -33 -4 -23
13 6 11 36 91 66 179 38 111 62 165 77 177 47 36 3 16 -85 -38 -154 -95 -218
-144 -314 -241 l-91 -92 -103 -11 c-152 -15 -297 -38 -458 -71 -79 -17 -144
-29 -145 -27 -1 2 -11 17 -22 34 -40 65 -161 181 -208 198 -10 3 -17 8 -15 10
15 14 391 80 604 106 94 11 192 23 219 26 38 5 58 15 89 44 26 24 37 41 32 50
-18 30 -261 123 -428 165 -83 21 -110 24 -126 15 -30 -15 -26 -6 19 51 46 59
115 177 107 185 -3 3 -10 -4 -16 -15 -20 -36 -112 -142 -122 -139 -10 3 -189
209 -189 217 0 3 21 15 47 25 68 28 178 106 263 186 41 38 78 70 82 70 13 0 8
61 -7 105 -8 21 -13 40 -12 41 1 1 70 12 152 24 195 29 384 64 516 96 l106 26
118 -101 c64 -55 122 -101 128 -101 7 0 8 -3 1 -10 -31 -31 -524 -143 -775
-176 l-127 -16 -43 -62 c-23 -33 -60 -82 -82 -108 -49 -61 -38 -62 17 -3 l41
45 205 -76 c324 -118 425 -170 527 -266 33 -33 67 -73 73 -89 7 -16 16 -29 21
-29 5 0 16 26 25 58 8 31 24 82 34 112 60 178 82 261 72 273 -10 12 1 50 119
416 27 84 49 162 49 172 0 12 -11 24 -27 31 -18 7 -22 12 -13 14 48 10 585 45
606 40 13 -4 24 -2 24 3 0 10 -48 21 -91 21 -16 0 -29 4 -29 9 0 5 -3 23 -6
40 -6 28 -3 32 27 46 19 8 36 14 39 14 3 1 33 -40 67 -89z m-1781 24 c-3 -8
-2 -12 4 -9 5 3 42 -18 82 -48 93 -68 197 -137 207 -137 12 0 36 -30 25 -30
-5 0 -110 -16 -233 -34 -190 -29 -233 -39 -283 -64 -32 -17 -58 -29 -58 -27 0
2 48 71 106 152 59 81 109 154 111 160 7 17 30 17 36 1 2 -7 8 -10 12 -5 5 4
0 13 -10 21 -10 7 -15 18 -11 24 10 17 19 15 12 -4z m969 -44 c20 -27 43 -54
51 -58 12 -7 10 -11 -8 -21 -21 -11 -35 -5 -136 51 -61 35 -112 66 -112 71 0
4 38 7 84 7 l84 0 37 -50z m406 2 c7 -19 4 -24 -17 -32 -34 -13 -104 -13 -104
0 0 6 12 22 27 36 34 32 82 30 94 -4z m-1641 -10 c0 -4 -9 -13 -21 -20 -12 -8
-18 -19 -15 -28 3 -8 2 -13 -3 -10 -16 10 -91 -83 -305 -376 -113 -156 -254
-346 -312 -423 -86 -114 -104 -143 -99 -164 3 -13 88 -191 189 -395 171 -347
207 -409 261 -444 18 -11 18 -12 2 -7 -10 3 -123 5 -250 5 l-232 0 -43 98
c-24 53 -80 182 -125 286 -70 163 -82 185 -90 165 -5 -13 -49 -140 -98 -283
-48 -142 -90 -260 -91 -262 -2 -1 -74 -4 -161 -6 -134 -3 -157 -1 -156 12 0 8
139 427 308 930 l307 915 148 3 c135 2 148 1 142 -14 -23 -60 -245 -748 -242
-751 2 -3 142 189 241 332 78 111 232 327 292 409 17 24 24 25 143 28 69 2
144 5 168 6 23 1 42 -1 42 -6z m3710 -11 c0 -8 112 -167 171 -242 25 -33 27
-40 18 -75 -20 -75 -162 -509 -171 -518 -9 -11 20 95 63 230 17 53 29 98 27
100 -4 3 -24 -57 -78 -226 -11 -36 -31 -94 -45 -130 -32 -87 -85 -263 -85
-283 0 -18 -11 -31 -80 -90 -25 -21 -68 -60 -95 -85 -28 -26 -75 -70 -105 -98
l-55 -51 -165 -7 c-173 -8 -349 -21 -403 -31 -31 -6 -33 -4 -66 57 -19 35 -61
105 -94 155 l-59 93 62 192 c184 571 211 652 223 666 6 9 83 82 170 164 l158
148 57 1 c31 0 152 9 267 18 258 22 285 23 285 12z m-2380 -84 c0 -33 -10 -40
-32 -21 -17 16 -17 18 0 30 25 19 32 17 32 -9z m-1440 -61 c-16 -25 -35 -48
-41 -52 -6 -3 6 17 26 45 45 63 58 68 15 7z m-212 -292 c-38 -53 -63 -74 -28
-23 28 40 51 69 57 69 2 0 -11 -21 -29 -46z m-145 -198 c-10 -13 -20 -22 -22
-20 -4 4 29 44 36 44 2 0 -4 -11 -14 -24z m-43 -60 c0 -2 -8 -10 -17 -17 -16
-13 -17 -12 -4 4 13 16 21 21 21 13z"/>
<path d="M5638 8893 c7 -3 16 -2 19 1 4 3 -2 6 -13 5 -11 0 -14 -3 -6 -6z"/>
<path d="M5558 8873 c7 -3 16 -2 19 1 4 3 -2 6 -13 5 -11 0 -14 -3 -6 -6z"/>
<path d="M4396 8363 c-6 -14 -5 -15 5 -6 7 7 10 15 7 18 -3 3 -9 -2 -12 -12z"/>
<path d="M4597 7928 c-20 -29 -34 -54 -32 -57 6 -5 42 37 61 72 27 50 7 40
-29 -15z"/>
<path d="M6510 8806 c0 -2 7 -7 16 -10 8 -3 12 -2 9 4 -6 10 -25 14 -25 6z"/>
<path d="M6971 8264 c0 -11 3 -14 6 -6 3 7 2 16 -1 19 -3 4 -6 -2 -5 -13z"/>
<path d="M7046 8267 c3 -10 9 -15 12 -12 3 3 0 11 -7 18 -10 9 -11 8 -5 -6z"/>
<path d="M6984 8238 c-4 -7 -3 -8 4 -4 8 5 12 -1 12 -16 1 -20 2 -21 11 -5 16
28 -10 53 -27 25z"/>
<path d="M7020 8195 c0 -8 5 -15 10 -15 6 0 10 7 10 15 0 8 -4 15 -10 15 -5 0
-10 -7 -10 -15z"/>
<path d="M7046 8183 c-4 -13 -1 -33 8 -50 8 -16 22 -57 31 -91 19 -77 34 -116
40 -110 8 8 -26 159 -45 203 -9 22 -20 47 -22 55 -4 11 -7 9 -12 -7z"/>
<path d="M7118 6652 c-15 -26 -37 -62 -48 -79 -12 -18 -17 -33 -12 -33 18 0
101 144 90 156 -2 1 -15 -19 -30 -44z"/>
<path d="M6552 8673 c37 -17 100 -87 127 -141 37 -74 42 -96 51 -222 l8 -105
-2 108 c-2 125 -3 126 75 -25 27 -54 52 -98 54 -98 3 0 3 18 1 40 -2 21 0 41
4 42 12 5 -47 145 -82 197 -78 114 -165 194 -224 206 -17 3 -22 2 -12 -2z"/>
<path d="M6335 8652 c-39 -13 -50 -21 -48 -37 1 -10 -7 -31 -17 -45 -21 -30
-100 -186 -100 -197 0 -5 21 24 46 62 47 74 94 112 94 78 0 -10 9 0 19 22 22
49 54 85 101 114 l35 21 -40 0 c-22 -1 -62 -9 -90 -18z"/>
<path d="M6700 7841 c0 -13 -9 -69 -21 -124 -11 -56 -21 -115 -21 -132 -1 -16
-7 -39 -14 -49 -7 -11 -11 -31 -8 -45 5 -21 3 -23 -6 -11 -9 12 -10 9 -5 -13
3 -17 2 -26 -3 -23 -13 8 -48 -87 -56 -150 -2 -16 -25 -78 -51 -138 -25 -59
-44 -110 -42 -112 5 -5 96 188 131 278 14 37 37 109 50 160 26 98 63 365 52
375 -3 4 -6 -4 -6 -16z m-88 -443 c-8 -8 -9 -4 -5 13 4 13 8 18 11 10 2 -7 -1
-18 -6 -23z"/>
<path d="M5729 7543 l-24 -28 28 24 c15 14 27 26 27 28 0 8 -8 1 -31 -24z"/>
<path d="M5679 7503 c-13 -16 -12 -17 4 -4 9 7 17 15 17 17 0 8 -8 3 -21 -13z"/>
<path d="M6024 7230 c0 -74 1 -105 3 -67 2 37 2 97 0 135 -2 37 -3 6 -3 -68z"/>
<path d="M5613 6886 c43 -19 89 -41 102 -50 18 -12 23 -13 19 -3 -5 15 -53 40
-129 68 -81 31 -76 21 8 -15z"/>
<path d="M4380 6835 c-13 -15 -40 -99 -40 -124 0 -23 16 -1 29 40 7 20 20 44
31 54 33 30 50 5 52 -79 1 -66 2 -68 8 -26 4 25 8 40 8 33 1 -6 8 -18 16 -25
12 -12 11 -21 -1 -57 -16 -46 -12 -89 11 -133 13 -24 12 -27 -8 -32 -36 -10
-59 -7 -79 12 -18 16 -19 16 -16 -3 3 -14 25 -27 77 -46 40 -15 84 -34 98 -44
14 -9 28 -14 30 -12 6 6 -86 189 -99 198 -4 3 5 26 22 51 17 25 31 54 31 64
-1 33 -36 100 -65 122 -32 25 -87 29 -105 7z"/>
<path d="M6250 6698 c-89 -118 -92 -123 -43 -72 44 46 100 124 88 124 -2 0
-22 -24 -45 -52z"/>
<path d="M5310 6390 c-12 -8 -11 -10 7 -10 12 0 25 5 28 10 8 13 -15 13 -35 0z"/>
<path d="M4502 6295 c-21 -45 -15 -74 15 -81 47 -12 73 55 35 89 -25 23 -37
21 -50 -8z"/>
<path d="M6235 6068 l-16 -33 20 25 c20 24 26 40 16 40 -2 0 -12 -15 -20 -32z"/>
<path d="M5928 5703 c7 -3 16 -2 19 1 4 3 -2 6 -13 5 -11 0 -14 -3 -6 -6z"/>
<path d="M5052 7671 c-11 -7 -10 -9 3 -14 9 -4 14 -3 10 2 -3 5 1 12 7 14 7 3
9 6 3 6 -5 0 -16 -3 -23 -8z"/>
<path d="M5028 7643 c7 -3 16 -2 19 1 4 3 -2 6 -13 5 -11 0 -14 -3 -6 -6z"/>
<path d="M4970 7620 c-13 -8 -13 -10 2 -10 9 0 20 5 23 10 8 13 -5 13 -25 0z"/>
<path d="M5905 7512 c-3 -11 -17 -38 -32 -59 -20 -30 -21 -34 -5 -20 23 21 57
86 49 94 -3 2 -8 -4 -12 -15z"/>
<path d="M2703 5228 c-15 -20 -25 -38 -20 -38 3 0 12 11 21 25 17 26 16 35 -1
13z"/>
<path d="M2641 5124 c0 -11 3 -14 6 -6 3 7 2 16 -1 19 -3 4 -6 -2 -5 -13z"/>
<path d="M2625 5090 c-3 -5 -1 -10 4 -10 6 0 11 5 11 10 0 6 -2 10 -4 10 -3 0
-8 -4 -11 -10z"/>
<path d="M2607 5048 c-4 -14 -9 -34 -13 -45 -3 -10 2 -5 11 10 9 16 15 36 13
45 -3 12 -6 9 -11 -10z"/>
<path d="M4261 6430 c0 -8 9 -35 19 -60 15 -36 19 -40 19 -20 0 14 -8 41 -19
60 -11 19 -19 28 -19 20z"/>
<path d="M4212 6385 c0 -16 2 -22 5 -12 2 9 2 23 0 30 -3 6 -5 -1 -5 -18z"/>
<path d="M4141 6064 c0 -11 3 -14 6 -6 3 7 2 16 -1 19 -3 4 -6 -2 -5 -13z"/>
<path d="M3892 5810 c0 -14 2 -19 5 -12 2 6 2 18 0 25 -3 6 -5 1 -5 -13z"/>
<path d="M3816 5553 c-2 -10 -8 -29 -11 -43 -5 -16 -4 -22 3 -15 5 6 12 25 15
43 7 34 2 44 -7 15z"/>
<path d="M3798 5443 c-9 -21 -19 -54 -23 -73 -4 -19 -9 -44 -12 -55 -4 -14 -2
-17 5 -10 12 12 55 152 50 166 -2 6 -11 -7 -20 -28z"/>
<path d="M3886 5243 c-6 -14 -5 -15 5 -6 7 7 10 15 7 18 -3 3 -9 -2 -12 -12z"/>
<path d="M4840 6221 c-12 -23 -13 -42 -1 -23 6 11 11 10 25 -3 9 -9 16 -12 16
-6 0 5 -5 13 -11 16 -6 4 -8 13 -5 21 8 21 -12 17 -24 -5z"/>
<path d="M7580 6011 c0 -6 4 -13 10 -16 6 -3 7 1 4 9 -7 18 -14 21 -14 7z"/>
<path d="M8310 5314 c1 -13 29 -48 34 -43 2 2 -4 15 -15 28 -10 13 -19 19 -19
15z"/>
<path d="M7000 5811 c0 -25 6 -52 14 -60 20 -23 47 -108 40 -126 -4 -8 -2 -15
3 -15 5 0 10 -14 11 -31 5 -68 165 -350 361 -637 31 -45 85 -129 121 -187 36
-57 71 -110 78 -117 20 -19 -93 175 -152 262 -28 41 -56 86 -62 100 -6 14 -41
74 -78 133 -109 176 -234 439 -312 657 l-24 65 0 -44z"/>
<path d="M7136 5070 c4 -19 11 -39 16 -45 6 -6 7 1 2 20 -10 46 -25 66 -18 25z"/>
<path d="M7320 4626 c0 -11 72 -127 76 -123 3 2 -11 32 -31 66 -32 54 -45 71
-45 57z"/>
<path d="M7650 4600 c6 -11 13 -20 16 -20 2 0 0 9 -6 20 -6 11 -13 20 -16 20
-2 0 0 -9 6 -20z"/>
<path d="M7411 4473 c7 -12 15 -20 18 -17 3 2 -3 12 -13 22 -17 16 -18 16 -5
-5z"/>
<path d="M8166 4308 c3 -7 17 -22 32 -32 27 -19 27 -19 -2 12 -32 35 -38 38
-30 20z"/>
<path d="M8355 4150 c10 -11 20 -20 23 -20 3 0 -3 9 -13 20 -10 11 -20 20 -23
20 -3 0 3 -9 13 -20z"/>
<path d="M7660 4146 c0 -2 8 -10 18 -17 15 -13 16 -12 3 4 -13 16 -21 21 -21
13z"/>
<path d="M7880 4141 c0 -5 5 -13 10 -16 6 -3 10 -2 10 4 0 5 -4 13 -10 16 -5
3 -10 2 -10 -4z"/>
<path d="M4291 5764 c-6 -15 -9 -29 -7 -32 3 -2 10 8 16 23 6 15 9 29 7 31 -2
2 -9 -8 -16 -22z"/>
<path d="M4271 5704 c0 -11 3 -14 6 -6 3 7 2 16 -1 19 -3 4 -6 -2 -5 -13z"/>
<path d="M6445 5300 c-4 -17 -5 -34 -2 -36 3 -3 8 9 12 26 4 17 5 34 2 36 -3
3 -8 -9 -12 -26z"/>
<path d="M3578 4613 c7 -3 16 -2 19 1 4 3 -2 6 -13 5 -11 0 -14 -3 -6 -6z"/>
<path d="M5878 4503 c7 -3 16 -2 19 1 4 3 -2 6 -13 5 -11 0 -14 -3 -6 -6z"/>
<path d="M5260 4635 c-11 -13 -10 -14 4 -9 9 3 16 10 16 15 0 13 -6 11 -20 -6z"/>
<path d="M5198 4553 c-19 -23 -31 -43 -24 -43 2 0 14 14 26 30 23 33 22 40 -2
13z"/>
<path d="M5360 4290 c0 -5 5 -10 11 -10 5 0 7 5 4 10 -3 6 -8 10 -11 10 -2 0
-4 -4 -4 -10z"/>
<path d="M6610 4030 c0 -5 5 -10 10 -10 6 0 10 5 10 10 0 6 -4 10 -10 10 -5 0
-10 -4 -10 -10z"/>
<path d="M6570 4020 c0 -5 7 -10 15 -10 8 0 15 -5 15 -12 0 -6 3 -8 6 -5 8 8
-14 37 -27 37 -5 0 -9 -4 -9 -10z"/>
<path d="M6790 3936 c0 -2 16 -13 36 -25 19 -12 32 -16 29 -11 -7 11 -65 43
-65 36z"/>
<path d="M6945 3845 c11 -9 19 -20 18 -25 -2 -5 4 -7 13 -3 17 6 11 12 -31 34
l-20 10 20 -16z"/>
<path d="M7000 3810 c0 -5 5 -10 11 -10 5 0 7 5 4 10 -3 6 -8 10 -11 10 -2 0
-4 -4 -4 -10z"/>
<path d="M7037 3789 c7 -7 15 -10 18 -7 3 3 -2 9 -12 12 -14 6 -15 5 -6 -5z"/>
<path d="M3267 2715 c7 -49 13 -58 13 -19 0 16 -5 36 -10 44 -6 10 -7 2 -3
-25z"/>
<path d="M2345 2458 c-65 -185 -135 -388 -135 -393 0 -5 422 5 456 11 55 8
119 59 152 122 36 68 112 300 114 345 1 43 -16 73 -52 92 -23 12 -72 15 -248
15 l-218 0 -69 -192z"/>
<path d="M6530 3565 c-16 -19 0 -19 26 0 16 12 16 14 3 15 -9 0 -22 -7 -29
-15z"/>
<path d="M6466 3414 c-4 -14 -5 -28 -3 -31 3 -2 8 8 11 23 4 14 5 28 3 31 -3
2 -8 -8 -11 -23z"/>
<path d="M7111 2793 c-1 -6 -4 -20 -7 -30 -5 -17 -5 -17 6 0 6 10 9 23 6 30
-3 9 -5 9 -5 0z"/>
<path d="M8272 3345 c-46 -15 -264 -35 -377 -35 -67 0 -73 -2 -102 -32 -17
-18 -37 -53 -43 -78 -6 -25 -25 -83 -40 -130 -96 -286 -190 -582 -190 -597 0
-10 6 -25 13 -34 11 -14 25 -15 107 -9 52 5 157 12 232 15 130 7 138 9 161 34
18 19 61 139 157 436 73 226 136 418 141 428 12 20 2 21 -59 2z"/>
<path d="M2774 1245 c-3 -6 -3 -100 -2 -210 l3 -200 40 0 40 0 1 65 1 65 42 6
c47 6 90 34 108 70 28 53 11 154 -32 189 -21 18 -196 30 -201 15z m154 -87
c14 -14 16 -67 3 -86 -4 -8 -24 -14 -42 -15 l-34 -2 -3 58 -3 57 34 0 c18 0
38 -5 45 -12z"/>
<path d="M3824 1250 c-54 -21 -83 -100 -64 -170 13 -47 42 -70 100 -77 33 -5
41 -10 47 -31 8 -34 -9 -57 -43 -57 -20 0 -32 7 -39 23 -10 23 -24 26 -62 16
-27 -7 -28 -15 -7 -60 56 -117 234 -61 234 73 0 56 -36 99 -96 114 -52 13 -68
30 -60 63 10 42 76 46 76 5 0 -24 21 -33 55 -25 31 8 33 38 5 84 -29 47 -90
65 -146 42z"/>
<path d="M4865 1246 c-50 -22 -68 -60 -73 -153 -7 -127 4 -185 39 -221 39 -40
83 -48 137 -26 57 22 75 58 79 157 l3 77 -70 0 -70 0 0 -45 c0 -43 1 -45 30
-45 27 0 30 -3 30 -30 0 -34 -29 -55 -65 -46 -29 7 -39 60 -33 167 3 55 8 74
23 85 28 21 44 17 63 -16 13 -24 24 -30 50 -30 28 0 32 3 32 26 0 39 -36 91
-72 103 -40 14 -66 13 -103 -3z"/>
<path d="M6290 1238 c-19 -13 -40 -35 -47 -48 -19 -37 -17 -263 2 -300 14 -28
71 -70 95 -70 6 0 19 -9 28 -20 10 -11 33 -26 54 -35 34 -14 38 -13 60 5 23
20 23 20 3 36 -11 8 -27 19 -35 24 -13 7 -12 13 7 37 16 22 23 51 28 116 11
128 0 192 -39 234 -43 47 -105 56 -156 21z m83 -67 c19 -8 26 -19 31 -55 10
-63 -3 -191 -17 -177 -18 18 -27 13 -27 -14 0 -29 -7 -31 -32 -8 -15 14 -18
32 -18 124 0 84 3 111 16 123 18 19 16 19 47 7z"/>
<path d="M8284 1224 c-9 -20 -23 -57 -33 -82 l-18 -45 -24 76 -24 77 -44 0
c-37 0 -42 -2 -36 -17 60 -149 85 -239 85 -312 0 -43 2 -80 5 -82 2 -3 20 -3
40 -1 l35 4 0 75 c0 66 5 88 50 197 28 68 50 128 50 134 0 7 -15 12 -36 12
-31 0 -37 -4 -50 -36z"/>
<path d="M3112 1043 l3 -208 40 1 40 1 0 69 c0 64 2 69 23 72 13 2 22 -2 22
-10 0 -7 12 -41 26 -74 l26 -61 44 1 c24 0 44 1 44 2 0 0 -16 37 -36 83 l-35
82 25 30 c22 25 26 41 26 91 0 55 -3 63 -34 94 -34 34 -35 34 -125 34 l-91 0
2 -207z m157 113 c7 -8 11 -29 9 -47 -2 -25 -9 -35 -31 -42 -44 -14 -57 -3
-57 46 0 24 3 47 7 50 12 12 60 7 72 -7z"/>
<path d="M3470 1040 l0 -210 100 0 100 0 0 46 0 47 -60 -7 -60 -7 0 46 0 45
45 0 c39 0 45 3 51 24 12 48 2 61 -46 61 l-45 0 -3 43 -3 42 59 0 60 0 4 40 4
40 -103 0 -103 0 0 -210z"/>
<path d="M4070 1211 c0 -39 1 -40 38 -43 l37 -3 0 -160 c0 -88 3 -161 8 -162
4 -2 23 -3 42 -3 l35 0 0 165 0 165 40 0 c36 0 40 3 40 24 0 13 3 31 6 40 5
14 -9 16 -120 16 l-126 0 0 -39z"/>
<path d="M4401 1045 l-2 -205 30 -1 c17 -1 36 -2 42 -3 8 -1 13 61 16 207 l5
207 -44 0 -45 0 -2 -205z"/>
<path d="M4602 1045 l-1 -205 39 0 40 0 0 108 c0 59 3 151 7 205 l6 97 -45 0
-45 0 -1 -205z"/>
<path d="M5160 1108 c0 -79 3 -172 6 -208 l7 -65 92 -2 93 -2 6 31 c11 58 11
58 -60 58 l-65 0 3 38 c3 37 3 37 51 40 l47 3 0 46 0 46 -45 -5 c-32 -4 -45
-2 -45 7 0 7 -3 27 -6 44 l-6 31 66 0 66 0 0 40 0 40 -105 0 -105 0 0 -142z"/>
<path d="M6600 1243 c-1 -5 0 -82 0 -172 1 -132 4 -168 17 -188 35 -53 111
-68 168 -33 52 32 59 58 63 238 l4 162 -45 0 -45 0 -2 -162 c-1 -171 -3 -178
-48 -178 -35 0 -43 39 -40 197 l3 143 -37 0 c-21 0 -38 -3 -38 -7z"/>
<path d="M7020 1246 c0 -2 -22 -94 -50 -204 -27 -110 -50 -202 -50 -204 0 -3
19 -4 43 -4 40 1 42 2 45 34 l3 33 57 -3 c54 -3 57 -5 60 -30 2 -16 9 -29 15
-30 39 -5 68 -4 72 2 2 3 -17 87 -42 186 -25 98 -48 189 -50 202 -5 19 -12 22
-54 22 -27 0 -49 -2 -49 -4z m69 -188 c16 -68 15 -78 -13 -78 -35 0 -40 14
-26 81 14 67 22 66 39 -3z"/>
<path d="M7300 1045 l0 -205 64 0 c35 0 84 -3 110 -6 l47 -7 -3 44 -3 44 -60
3 c-33 2 -63 9 -67 15 -4 7 -8 81 -8 165 l0 152 -40 0 -40 0 0 -205z"/>
<path d="M7600 1041 l0 -208 39 0 39 0 4 191 c2 105 2 199 0 209 -3 12 -14 17
-43 17 l-39 0 0 -209z"/>
<path d="M7780 1207 l0 -43 40 4 40 4 0 -166 0 -166 40 0 40 0 0 165 0 165 45
0 45 0 0 40 0 40 -125 0 -125 0 0 -43z"/>
<path d="M1875 1059 c-71 -3 -166 -7 -209 -8 -44 0 -77 -3 -75 -5 9 -9 453
-37 674 -43 222 -6 231 -5 255 15 25 21 25 21 5 36 -17 13 -59 15 -270 14
-137 -1 -308 -5 -380 -9z"/>
<path d="M5697 1063 c-4 -3 -7 -21 -7 -40 l0 -33 95 0 95 0 0 40 0 40 -88 0
c-49 0 -92 -3 -95 -7z"/>
<path d="M8602 1054 c-22 -15 -22 -17 -6 -35 15 -17 32 -19 163 -19 80 1 216
5 301 10 85 5 217 12 293 16 76 4 134 10 130 15 -10 9 -502 29 -708 29 -122 0
-155 -3 -173 -16z"/>
</g>
</svg>
